<?xml version="1.0" encoding="UTF-8" standalone="no"?>
<!DOCTYPE svg PUBLIC "-//W3C//DTD SVG 1.0//EN" "http://www.w3.org/TR/2001/REC-SVG-20010904/DTD/ svg10.dtd">
<!-- Created with Inkscape (http://www.inkscape.org/) -->
<svg xmlns:svg="http://www.w3.org/2000/svg" xmlns="http://www.w3.org/2000/svg" version="1.0" width="220" height="220" id="svg2">
  <defs id="defs5"/>
  <g transform="translate(-19, -20)" id="g3257">
    <path d="M 129,230 L 29,130 L 129,30 L 229,130 L 129,230 z" id="path2410" style="opacity: 1; fill: rgb(175, 0, 0); fill-opacity: 1; fill-rule: evenodd; stroke: none; stroke-width: 1px; stroke-linecap: butt; stroke-linejoin: miter; stroke-opacity: 1;"/>
    <g id="g3252">
      <path d="M 129,113.1875 C 121.80535,113.1875 115.25527,116.01435 110.375,120.75 C 105.49474,125.48563 102.25,132.30248 102.25,139.9375 C 102.25,147.09532 105.09106,153.53982 109.46875,158.21875 C 105.09318,160.69948 102.25,165.21996 102.25,170 L 102.25,203.25 L 108.75,209.75 L 108.75,170 C 108.75,167.16503 112.3285,162.75 117,162.75 L 117,156.25 C 115.86821,155.4182 114.83894,154.48488 113.9375,153.4375 C 110.36398,149.2854 108.75,145.06903 108.75,139.9375 C 108.75,134.80596 110.41905,130.52547 113.9375,126.4375 C 117.47138,122.33161 123.03821,119.6875 129,119.6875 C 134.96179,119.6875 140.42644,122.22289 144.0625,126.4375 C 147.68517,130.63661 149.25,134.80597 149.25,139.9375 C 149.25,145.06903 147.53632,149.36993 144.0625,153.4375 C 143.18403,154.46613 142.16186,155.41855 141.03125,156.25 C 141.02471,156.25481 141.00655,156.2452 141,156.25 L 141,162.75 C 145.66667,162.75 149.25,167.16667 149.25,170 L 149.25,209.75 L 155.75,203.25 L 155.75,170 C 155.75,165.21887 152.90682,160.69911 148.53125,158.21875 C 152.90894,153.53982 155.75,147.09533 155.75,139.9375 C 155.75,132.30247 152.50526,125.48563 147.625,120.75 C 142.74473,116.01435 136.19465,113.1875 129,113.1875 z" id="path3218" style="opacity: 1; fill: rgb(255, 255, 255); fill-opacity: 1; fill-rule: evenodd; stroke: none; stroke-width: 6.5; stroke-linecap: butt; stroke-linejoin: miter; stroke-miterlimit: 4; stroke-dasharray: none; stroke-opacity: 1;"/>
      <path d="M 129,89.75 C 107.60016,89.75 86.25,107.83465 86.25,130 L 86.25,187.25 L 92.75,193.75 L 92.75,130 C 92.75,112.16535 111.3756,96.25 129,96.25 C 146.76142,96.25 165.25,112.15181 165.25,130 L 165.25,193.75 L 171.75,187.25 L 171.75,130 C 171.75,107.84819 150.51282,89.75 129,89.75 z" id="path3194" style="opacity: 1; fill: rgb(255, 255, 255); fill-opacity: 1; fill-rule: evenodd; stroke: none; stroke-width: 6.5; stroke-linecap: round; stroke-linejoin: round; stroke-miterlimit: 4; stroke-dasharray: none; stroke-opacity: 1;"/>
      <path d="M 128.75,58.75 C 128.59166,58.769702 128.43499,58.801037 128.28125,58.84375 C 114.40653,62.045608 100.09491,71.282682 89.0625,83.9375 C 78.030094,96.592318 70.25,112.76667 70.25,130 L 70.25,171.25 L 76.75,177.75 L 76.75,130 C 76.75,114.73333 83.719906,99.907682 93.9375,88.1875 C 103.95621,76.695451 117.0623,68.367147 129,65.40625 C 140.9377,68.367147 154.04379,76.695451 164.0625,88.1875 C 174.28009,99.907682 181.25,114.73333 181.25,130 L 181.25,177.75 L 187.75,171.25 L 187.75,130 C 187.75,112.76667 179.96991,96.592318 168.9375,83.9375 C 157.90509,71.282682 143.59347,62.045608 129.71875,58.84375 C 129.40237,58.764056 129.07579,58.732452 128.75,58.75 z" id="path3202" style="opacity: 1; fill: rgb(255, 255, 255); fill-opacity: 1; fill-rule: evenodd; stroke: none; stroke-width: 6.5; stroke-linecap: round; stroke-linejoin: round; stroke-miterlimit: 4; stroke-dasharray: none; stroke-opacity: 1;"/>
    </g>
  </g>
</svg>